<svg width="108" height="40" viewBox="0 0 108 40" fill="none" xmlns="http://www.w3.org/2000/svg">
<g filter="url(#filter0_d_11459_162230)">
<rect opacity="0.2" x="5" y="1" width="98" height="30" rx="15" stroke="#AAAAAA" stroke-width="2"/>
<path d="M36.9787 21H35.348L39.0121 10.8182H40.7869L44.451 21H42.8203L39.9418 12.6676H39.8622L36.9787 21ZM37.2521 17.0128H42.5419V18.3054H37.2521V17.0128ZM45.802 21V13.3636H47.2885V16.5653H48.0044L50.525 13.3636H52.3645L49.4064 17.0774L52.3993 21H50.5549L48.253 17.9474H47.2885V21H45.802ZM53.554 21V13.3636H55.0405V16.5653H55.7564L58.277 13.3636H60.1165L57.1584 17.0774L60.1513 21H58.3068L56.005 17.9474H55.0405V21H53.554ZM63.5282 21.169C63.0443 21.169 62.6068 21.0795 62.2157 20.9006C61.8246 20.7183 61.5147 20.4548 61.286 20.1101C61.0607 19.7654 60.948 19.3428 60.948 18.8423C60.948 18.4115 61.0308 18.0568 61.1966 17.7784C61.3623 17.5 61.586 17.2796 61.8677 17.1172C62.1494 16.9548 62.4643 16.8321 62.8123 16.7493C63.1603 16.6664 63.515 16.6035 63.8762 16.5604C64.3336 16.5073 64.7048 16.4643 64.9899 16.4311C65.2749 16.3946 65.4821 16.3366 65.6113 16.2571C65.7406 16.1776 65.8052 16.0483 65.8052 15.8693V15.8345C65.8052 15.4003 65.6826 15.0639 65.4373 14.8253C65.1954 14.5866 64.8341 14.4673 64.3535 14.4673C63.853 14.4673 63.4586 14.5784 63.1703 14.8004C62.8852 15.0192 62.688 15.2628 62.5787 15.5312L61.1816 15.2131C61.3474 14.7491 61.5893 14.3745 61.9075 14.0895C62.229 13.8011 62.5985 13.5923 63.0162 13.4631C63.4338 13.3305 63.8729 13.2642 64.3336 13.2642C64.6386 13.2642 64.9617 13.3007 65.3031 13.3736C65.6478 13.4432 65.9693 13.5724 66.2676 13.7614C66.5692 13.9503 66.8161 14.2204 67.0083 14.5717C67.2006 14.9197 67.2967 15.3722 67.2967 15.929V21H65.845V19.956H65.7853C65.6892 20.1482 65.545 20.3371 65.3528 20.5227C65.1606 20.7083 64.9136 20.8625 64.612 20.9851C64.3104 21.1077 63.9492 21.169 63.5282 21.169ZM63.8514 19.9759C64.2624 19.9759 64.6137 19.8946 64.9054 19.7322C65.2003 19.5698 65.4241 19.3577 65.5765 19.0959C65.7323 18.8307 65.8102 18.5473 65.8102 18.2457V17.2614C65.7572 17.3144 65.6544 17.3641 65.502 17.4105C65.3528 17.4536 65.1821 17.4917 64.9899 17.5249C64.7976 17.5547 64.6104 17.5829 64.4281 17.6094C64.2458 17.6326 64.0933 17.6525 63.9707 17.669C63.6824 17.7055 63.4189 17.7668 63.1802 17.853C62.9449 17.9392 62.756 18.0634 62.6135 18.2259C62.4743 18.3849 62.4047 18.5971 62.4047 18.8622C62.4047 19.2301 62.5405 19.5085 62.8123 19.6974C63.0841 19.883 63.4305 19.9759 63.8514 19.9759ZM69.9428 23.8636C69.7208 23.8636 69.5186 23.8454 69.3363 23.8089C69.154 23.7758 69.0181 23.7393 68.9286 23.6996L69.2866 22.4815C69.5584 22.5545 69.8003 22.5859 70.0124 22.576C70.2246 22.5661 70.4118 22.4865 70.5742 22.3374C70.7399 22.1882 70.8858 21.9446 71.0117 21.6065L71.1957 21.0994L68.4016 13.3636H69.9925L71.9265 19.2898H72.006L73.94 13.3636H75.5359L72.3888 22.0192C72.243 22.4169 72.0574 22.7533 71.832 23.0284C71.6067 23.3068 71.3382 23.5156 71.0266 23.6548C70.7151 23.794 70.3538 23.8636 69.9428 23.8636ZM82.1083 16.5405V17.8281H77.9719V16.5405H82.1083ZM78.3896 13.3636V21H76.9329V13.3636H78.3896ZM83.1474 13.3636V21H81.6957V13.3636H83.1474ZM84.1889 14.6463V13.3636H90.6321V14.6463H88.1413V21H86.6896V14.6463H84.1889Z" fill="white"/>
<path fill-rule="evenodd" clip-rule="evenodd" d="M24 13C24 14.1046 23.1046 15 22 15C20.8954 15 20 14.1046 20 13C20 11.8954 20.8954 11 22 11C23.1046 11 24 11.8954 24 13ZM26 13C26 15.2091 24.2091 17 22 17C19.7909 17 18 15.2091 18 13C18 10.7909 19.7909 9 22 9C24.2091 9 26 10.7909 26 13ZM20 18C17.7909 18 16 19.7909 16 22V23H18V22C18 20.8954 18.8954 20 20 20H24C25.1046 20 26 20.8954 26 22V23H28V22C28 19.7909 26.2091 18 24 18H20Z" fill="white"/>
</g>
<defs>
<filter id="filter0_d_11459_162230" x="0" y="0" width="108" height="40" filterUnits="userSpaceOnUse" color-interpolation-filters="sRGB">
<feFlood flood-opacity="0" result="BackgroundImageFix"/>
<feColorMatrix in="SourceAlpha" type="matrix" values="0 0 0 0 0 0 0 0 0 0 0 0 0 0 0 0 0 0 127 0" result="hardAlpha"/>
<feOffset dy="4"/>
<feGaussianBlur stdDeviation="2"/>
<feComposite in2="hardAlpha" operator="out"/>
<feColorMatrix type="matrix" values="0 0 0 0 0 0 0 0 0 0 0 0 0 0 0 0 0 0 0.25 0"/>
<feBlend mode="normal" in2="BackgroundImageFix" result="effect1_dropShadow_11459_162230"/>
<feBlend mode="normal" in="SourceGraphic" in2="effect1_dropShadow_11459_162230" result="shape"/>
</filter>
</defs>
</svg>
